<?xml version="1.0" standalone="no"?>
<!DOCTYPE svg PUBLIC "-//W3C//DTD SVG 20010904//EN"
 "http://www.w3.org/TR/2001/REC-SVG-20010904/DTD/svg10.dtd">
<svg version="1.0" xmlns="http://www.w3.org/2000/svg"
 width="720.000000pt" height="720.000000pt" viewBox="0 0 720.000000 720.000000"
 preserveAspectRatio="xMidYMid meet">
<metadata>
Created by potrace 1.11, written by Peter Selinger 2001-2013
</metadata>
<g transform="translate(0.000000,720.000000) scale(0.100000,-0.100000)"
fill="#000000" stroke="none">
<path d="M0 3600 l0 -3600 3600 0 3600 0 0 3600 0 3600 -2591 0 c-2457 0
-2592 -1 -2605 -17 -13 -17 -13 -17 -14 0 0 16 -53 17 -995 17 l-995 0 0
-3600z m750 3500 c0 -5 -4 -10 -10 -10 -5 0 -10 5 -10 10 0 6 5 10 10 10 6 0
10 -4 10 -10z m-180 -51 c0 -5 -7 -9 -15 -9 -15 0 -20 12 -9 23 8 8 24 -1 24
-14z m2420 -79 c0 -5 -4 -10 -10 -10 -5 0 -10 5 -10 10 0 6 5 10 10 10 6 0 10
-4 10 -10z m3133 -2 c38 -18 35 -40 -5 -36 -25 2 -34 8 -36 26 -4 25 3 27 41
10z m-5188 -68 c-6 -9 -9 -9 -16 1 -10 17 0 34 13 21 6 -6 7 -16 3 -22z m-295
-11 c0 -24 -23 -21 -28 4 -2 10 3 17 12 17 10 0 16 -9 16 -21z m1643 -2 c7
-19 -8 -41 -22 -33 -16 10 -14 46 3 46 8 0 16 -6 19 -13z m-903 -43 c0 -9 -5
-14 -12 -12 -18 6 -21 28 -4 28 9 0 16 -7 16 -16z m800 -25 c0 -5 -4 -9 -10
-9 -5 0 -10 7 -10 16 0 8 5 12 10 9 6 -3 10 -10 10 -16z m-120 -44 c0 -25 -32
-51 -50 -40 -11 7 -13 48 -3 58 3 4 17 7 30 7 18 0 23 -5 23 -25z m1430 0 c0
-8 -7 -15 -15 -15 -8 0 -15 7 -15 15 0 8 7 15 15 15 8 0 15 -7 15 -15z m2715
-15 c-5 -8 -11 -8 -17 -2 -6 6 -7 16 -3 22 5 8 11 8 17 2 6 -6 7 -16 3 -22z
m-4955 -11 c0 -24 -23 -21 -28 4 -2 10 3 17 12 17 10 0 16 -9 16 -21z m-310
-50 c0 -5 -7 -9 -15 -9 -15 0 -20 12 -9 23 8 8 24 -1 24 -14z m5020 -9 c0 -5
-7 -10 -15 -10 -8 0 -15 5 -15 10 0 6 7 10 15 10 8 0 15 -4 15 -10z m-1285
-71 c0 -15 -7 -25 -17 -27 -13 -3 -18 3 -18 21 0 13 3 27 7 31 13 12 28 -1 28
-25z m-1839 -11 c37 -27 38 -28 138 -143 83 -95 223 -249 316 -348 36 -39 64
-59 80 -60 18 -1 81 42 229 158 113 88 245 195 294 238 50 43 97 77 106 75 19
-4 23 -31 45 -323 9 -115 25 -324 36 -464 11 -140 17 -258 13 -262 -5 -5 -154
-11 -333 -14 -483 -9 -664 -43 -884 -165 -87 -49 -116 -59 -116 -42 0 11 -175
306 -254 429 l-30 46 22 81 c12 45 35 124 51 176 15 52 49 167 75 255 87 296
97 325 122 355 31 36 50 37 90 8z m-2156 -9 c0 -5 -4 -9 -10 -9 -5 0 -10 7
-10 16 0 8 5 12 10 9 6 -3 10 -10 10 -16z m770 -15 c0 -8 -5 -12 -10 -9 -6 4
-8 11 -5 16 9 14 15 11 15 -7z m1990 -14 c0 -5 -4 -10 -10 -10 -5 0 -10 5 -10
10 0 6 5 10 10 10 6 0 10 -4 10 -10z m-2680 -46 c0 -17 -22 -14 -28 4 -2 7 3
12 12 12 9 0 16 -7 16 -16z m-720 -20 c0 -8 -5 -12 -10 -9 -6 4 -8 11 -5 16 9
14 15 11 15 -7z m2180 -17 c0 -8 -3 -17 -7 -20 -9 -9 -34 13 -27 24 8 14 34
11 34 -4z m4740 -17 c0 -5 -4 -10 -10 -10 -5 0 -10 5 -10 10 0 6 5 10 10 10 6
0 10 -4 10 -10z m-6272 -68 c2 -7 -3 -12 -12 -12 -9 0 -16 7 -16 16 0 17 22
14 28 -4z m536 -13 c-6 -11 -24 -2 -24 11 0 5 7 7 15 4 8 -4 12 -10 9 -15z
m33 -11 c-3 -8 -6 -5 -6 6 -1 11 2 17 5 13 3 -3 4 -12 1 -19z m-827 -24 c0 -8
-5 -12 -10 -9 -6 4 -8 11 -5 16 9 14 15 11 15 -7z m6530 -24 c0 -5 -2 -10 -4
-10 -3 0 -8 5 -11 10 -3 6 -1 10 4 10 6 0 11 -4 11 -10z m-650 -31 c0 -5 -4
-9 -10 -9 -5 0 -10 7 -10 16 0 8 5 12 10 9 6 -3 10 -10 10 -16z m-5900 -34 c0
-8 -4 -15 -10 -15 -5 0 -10 7 -10 15 0 8 5 15 10 15 6 0 10 -7 10 -15z m847
-37 c-3 -8 -6 -5 -6 6 -1 11 2 17 5 13 3 -3 4 -12 1 -19z m4507 13 c3 -5 -1
-14 -8 -20 -16 -13 -32 2 -21 19 8 12 22 13 29 1z m-5476 -13 c16 -16 15 -48
-1 -48 -16 0 -40 38 -32 50 8 13 19 12 33 -2z m5272 -18 c0 -5 -7 -10 -15 -10
-8 0 -15 5 -15 10 0 6 7 10 15 10 8 0 15 -4 15 -10z m-304 -57 c-11 -11 -19 6
-11 24 8 17 8 17 12 0 3 -10 2 -21 -1 -24z m-246 23 c0 -11 -19 -15 -25 -6 -3
5 1 10 9 10 9 0 16 -2 16 -4z m-4480 -61 c0 -8 -4 -15 -10 -15 -5 0 -10 7 -10
15 0 8 5 15 10 15 6 0 10 -7 10 -15z m410 -40 c0 -8 -4 -15 -10 -15 -5 0 -10
7 -10 15 0 8 5 15 10 15 6 0 10 -7 10 -15z m-428 -120 c0 -5 -5 -11 -11 -13
-6 -2 -11 4 -11 13 0 9 5 15 11 13 6 -2 11 -8 11 -13z m4028 -11 c0 -8 -4 -12
-10 -9 -5 3 -10 10 -10 16 0 5 5 9 10 9 6 0 10 -7 10 -16z m980 -4 c0 -5 -4
-10 -9 -10 -6 0 -13 5 -16 10 -3 6 1 10 9 10 9 0 16 -4 16 -10z m-4260 -40 c0
-5 -7 -10 -15 -10 -8 0 -15 5 -15 10 0 6 7 10 15 10 8 0 15 -4 15 -10z m3980
-31 c0 -5 -7 -9 -15 -9 -9 0 -12 6 -9 15 6 15 24 11 24 -6z m-4290 -74 c0 -8
-4 -15 -10 -15 -5 0 -10 7 -10 15 0 8 5 15 10 15 6 0 10 -7 10 -15z m5400 -10
c0 -8 -4 -15 -10 -15 -5 0 -10 7 -10 15 0 8 5 15 10 15 6 0 10 -7 10 -15z
m-983 -27 c-3 -8 -6 -5 -6 6 -1 11 2 17 5 13 3 -3 4 -12 1 -19z m1123 -218 c0
-21 -15 -27 -25 -10 -7 12 2 30 16 30 5 0 9 -9 9 -20z m-5572 -78 c2 -7 -3
-12 -12 -12 -9 0 -16 7 -16 16 0 17 22 14 28 -4z m4612 3 c0 -8 -4 -15 -9 -15
-13 0 -22 16 -14 24 11 11 23 6 23 -9z m530 -27 c0 -18 -2 -20 -9 -8 -6 8 -7
18 -5 22 9 14 14 9 14 -14z m-600 -18 c0 -11 -6 -20 -14 -20 -21 0 -31 21 -15
31 22 14 29 11 29 -11z m-872 -29 c-5 -24 -38 -27 -38 -3 0 10 3 21 6 25 11
11 35 -5 32 -22z m1662 4 c0 -8 -7 -15 -15 -15 -8 0 -15 7 -15 15 0 8 7 15 15
15 8 0 15 -7 15 -15z m-5294 -80 c-7 -20 -25 -16 -40 8 -8 13 -7 20 4 27 20
12 45 -12 36 -35z m-99 3 c-3 -8 -6 -5 -6 6 -1 11 2 17 5 13 3 -3 4 -12 1 -19z
m5547 14 c2 -4 0 -14 -5 -22 -8 -13 -10 -13 -18 0 -10 15 -6 30 9 30 5 0 11
-4 14 -8z m-2129 -42 c3 -5 1 -10 -4 -10 -6 0 -11 5 -11 10 0 6 2 10 4 10 3 0
8 -4 11 -10z m-878 -75 c-69 -23 -91 -36 -119 -70 -9 -11 -23 -20 -30 -20 -16
0 -14 -55 2 -65 6 -4 8 -14 4 -23 -5 -14 -1 -15 23 -8 70 21 114 44 101 52 -8
6 -1 7 18 3 23 -4 33 -2 37 10 4 9 18 16 34 16 35 0 70 19 38 21 l-20 0 20 9
c11 5 31 8 45 8 l25 0 -25 -8 c-23 -7 -23 -8 -3 -9 12 -1 28 5 35 12 7 7 33
18 58 25 46 11 69 9 30 -3 -16 -5 -21 -13 -18 -30 4 -19 -1 -25 -34 -34 -67
-21 -45 -33 45 -26 77 6 81 5 62 -10 -20 -16 -19 -16 5 -10 14 4 33 9 43 11 9
3 17 2 17 -2 0 -16 -43 -42 -80 -48 -23 -3 -43 -13 -47 -22 -8 -21 2 -27 24
-16 29 15 73 23 73 13 0 -5 -11 -12 -25 -15 -27 -7 -65 -43 -65 -63 0 -7 6
-10 16 -6 14 5 14 3 4 -14 -14 -21 -92 -49 -110 -38 -12 7 -97 -22 -121 -42
-8 -7 -21 -13 -27 -13 -7 0 -12 -6 -12 -12 0 -9 -4 -8 -10 2 -9 13 -12 12 -25
-4 -12 -16 -31 -21 -105 -24 -101 -5 -123 -22 -28 -22 89 0 67 -8 -32 -11 -83
-3 -140 -16 -140 -31 0 -4 6 -8 13 -9 6 0 -3 -5 -22 -11 -23 -6 -37 -6 -44 1
-15 15 -27 14 -21 -3 3 -7 -2 -16 -12 -20 -12 -5 -15 -2 -10 9 3 9 2 13 -3 10
-6 -3 -14 3 -20 12 -10 17 -10 17 -11 1 0 -19 -9 -22 -25 -10 -16 11 -15 41 1
35 8 -3 17 3 21 13 4 11 14 24 22 31 9 7 12 12 6 12 -5 1 -21 -8 -35 -19 -27
-21 -50 -26 -50 -10 0 16 -25 11 -47 -9 -12 -11 -23 -17 -26 -14 -12 11 -47
-9 -47 -28 0 -11 -7 -22 -15 -25 -24 -10 -17 -21 13 -20 15 1 33 -3 39 -7 7
-5 24 -5 41 1 24 8 28 7 29 -8 2 -23 -36 -41 -58 -27 -13 8 -21 6 -34 -6 -20
-20 -26 -22 -20 -4 3 6 1 18 -4 26 -7 11 -15 11 -40 3 -27 -10 -35 -8 -52 9
l-21 21 21 29 c12 15 21 35 21 44 0 8 11 20 25 25 14 5 25 16 25 24 0 27 -29
25 -69 -5 -23 -16 -41 -24 -41 -19 0 10 74 97 95 112 44 32 85 74 131 135 29
39 71 84 91 100 64 50 184 98 281 114 37 6 101 17 142 23 41 7 79 11 84 8 4
-3 -21 -15 -57 -27z m3091 -18 c2 -12 -3 -17 -17 -17 -15 0 -21 6 -21 21 0 25
33 22 38 -4z m-2168 3 c0 -5 -4 -10 -9 -10 -6 0 -13 5 -16 10 -3 6 1 10 9 10
9 0 16 -4 16 -10z m-609 -33 c-10 -9 -11 -8 -5 6 3 10 9 15 12 12 3 -3 0 -11
-7 -18z m39 -38 c0 -5 -4 -9 -10 -9 -5 0 -10 7 -10 16 0 8 5 12 10 9 6 -3 10
-10 10 -16z m3328 9 c-6 -18 -28 -21 -28 -4 0 9 7 16 16 16 9 0 14 -5 12 -12z
m-2538 -38 c0 -5 -7 -7 -15 -4 -8 4 -15 8 -15 10 0 2 7 4 15 4 8 0 15 -4 15
-10z m60 -70 c0 -5 -2 -10 -4 -10 -3 0 -8 5 -11 10 -3 6 -1 10 4 10 6 0 11 -4
11 -10z m37 -45 c3 -9 2 -19 -2 -23 -4 -4 -10 -1 -12 6 -3 6 -13 12 -24 12
-10 0 -19 5 -19 10 0 16 50 11 57 -5z m-2789 -36 c-2 -6 -8 -10 -13 -10 -5 0
-11 4 -13 10 -2 6 4 11 13 11 9 0 15 -5 13 -11z m2562 -35 c0 -3 -13 4 -30 16
-16 12 -30 24 -30 26 0 3 14 -4 30 -16 17 -12 30 -24 30 -26z m315 6 c3 -5 2
-10 -4 -10 -5 0 -13 5 -16 10 -3 6 -2 10 4 10 5 0 13 -4 16 -10z m50 -86 c11
-12 38 -33 59 -48 21 -14 32 -26 23 -26 -8 0 -26 9 -39 20 -23 20 -108 84
-144 107 -11 7 3 3 31 -10 27 -12 59 -32 70 -43z m26 50 c17 -8 28 -18 25 -22
-4 -3 -12 0 -18 6 -7 7 -20 12 -30 12 -10 0 -18 5 -18 10 0 13 6 13 41 -6z
m500 -7 c-1 -12 -15 -9 -19 4 -3 6 1 10 8 8 6 -3 11 -8 11 -12z m-3841 -42 c0
-8 -4 -15 -10 -15 -5 0 -10 7 -10 15 0 8 5 15 10 15 6 0 10 -7 10 -15z m402 0
c0 -5 -5 -11 -11 -13 -6 -2 -11 4 -11 13 0 9 5 15 11 13 6 -2 11 -8 11 -13z
m2985 9 c-3 -3 -12 -4 -19 -1 -8 3 -5 6 6 6 11 1 17 -2 13 -5z m-3392 -64 c8
-25 -12 -62 -32 -58 -9 2 -22 13 -30 24 -12 19 -12 24 2 38 22 22 52 20 60 -4z
m3520 -23 c4 -13 5 -29 3 -36 -2 -7 16 -20 39 -29 48 -20 63 -32 39 -32 -40 0
-116 54 -116 82 0 12 -8 18 -22 18 -19 0 -20 2 -8 10 28 18 59 12 65 -13z
m-1229 -12 c-1 -7 -14 -25 -30 -40 -28 -26 -37 -30 -35 -17 5 28 -2 35 -19 19
-10 -10 -27 -17 -38 -17 -27 0 39 40 69 41 13 0 16 3 8 6 -11 5 -11 7 0 14 22
14 47 10 45 -6z m1019 4 c11 -17 -1 -21 -15 -4 -8 9 -8 15 -2 15 6 0 14 -5 17
-11z m-2262 -39 c-7 -25 -19 -34 -28 -20 -7 11 11 40 25 40 5 0 6 -9 3 -20z
m2322 -11 c11 -20 22 -29 31 -25 8 3 36 1 63 -6 l48 -11 -9 -56 c-5 -31 -15
-63 -23 -71 -13 -12 -19 -10 -45 20 -34 41 -38 55 -9 40 11 -6 28 -10 37 -8
13 2 8 9 -18 27 -44 31 -100 91 -100 108 0 21 8 15 25 -18z m-121 -50 c53 -53
53 -58 3 -31 -57 30 -97 63 -97 78 0 27 42 6 94 -47z m-2770 19 c13 -22 3 -32
-23 -23 -25 8 -29 48 -5 43 9 -2 22 -11 28 -20z m1696 8 c0 -2 -9 -6 -20 -9
-11 -3 -18 -1 -14 4 5 9 34 13 34 5z m936 -18 l19 -21 -27 18 c-29 18 -34 25
-20 25 5 0 17 -10 28 -22z m-1648 3 c10 -6 9 -10 -7 -14 -14 -3 -21 0 -21 9 0
16 9 18 28 5z m1195 2 c-7 -2 -19 -2 -25 0 -7 3 -2 5 12 5 14 0 19 -2 13 -5z
m-413 -13 c0 -5 -8 -10 -17 -10 -15 0 -16 2 -3 10 19 12 20 12 20 0z m561 -16
c60 -17 99 -39 99 -55 0 -5 -10 -3 -22 5 -12 9 -29 16 -38 16 -21 1 -128 49
-109 50 8 0 40 -7 70 -16z m-3046 -13 c3 -5 1 -12 -5 -16 -5 -3 -10 1 -10 9 0
18 6 21 15 7z m2542 3 c-3 -3 -12 -4 -19 -1 -8 3 -5 6 6 6 11 1 17 -2 13 -5z
m-560 -16 c43 -15 44 -48 4 -89 -23 -23 -38 -29 -72 -29 -44 0 -114 34 -103
51 8 14 31 10 38 -7 9 -25 60 -14 64 14 2 15 -2 22 -12 22 -38 0 -2 46 38 49
5 1 25 -4 43 -11z m2430 -10 c-3 -8 -6 -5 -6 6 -1 11 2 17 5 13 3 -3 4 -12 1
-19z m-3007 2 c0 -5 -4 -10 -10 -10 -5 0 -10 5 -10 10 0 6 5 10 10 10 6 0 10
-4 10 -10z m294 -5 c-25 -19 -40 -19 -24 0 7 8 20 15 28 15 13 0 12 -3 -4 -15z
m-924 -46 c0 -11 -4 -17 -10 -14 -5 3 -10 13 -10 21 0 8 5 14 10 14 6 0 10 -9
10 -21z m380 -36 c14 -2 42 -9 63 -15 36 -11 37 -13 35 -50 -1 -22 3 -42 9
-46 15 -10 25 -49 14 -56 -6 -4 -7 -14 -4 -23 6 -15 4 -15 -18 0 -13 10 -41
22 -61 28 -28 7 -38 15 -38 30 0 16 -4 19 -17 14 -34 -13 -38 -10 -41 38 -3
44 -13 59 -27 37 -3 -5 -20 -19 -38 -32 -28 -20 -30 -20 -18 -3 40 54 86 95
101 89 8 -4 26 -8 40 -11z m4020 2 c0 -8 -7 -15 -15 -15 -8 0 -15 7 -15 15 0
8 7 15 15 15 8 0 15 -7 15 -15z m-4640 -36 c0 -24 -23 -21 -28 4 -2 10 3 17
12 17 10 0 16 -9 16 -21z m3230 -83 c0 -8 -8 -20 -19 -25 -25 -14 -48 5 -56
49 l-6 35 27 -30 c21 -23 26 -25 21 -10 -20 68 -20 71 7 33 14 -20 26 -44 26
-52z m-1230 64 c0 -5 -12 -10 -27 -9 -25 0 -26 1 -8 9 27 12 35 12 35 0z
m2110 -11 c0 -5 -4 -9 -10 -9 -5 0 -10 7 -10 16 0 8 5 12 10 9 6 -3 10 -10 10
-16z m-2515 -59 c3 -5 2 -10 -4 -10 -5 0 -13 5 -16 10 -3 6 -2 10 4 10 5 0 13
-4 16 -10z m140 -10 c13 -6 15 -9 5 -9 -8 0 -22 4 -30 9 -18 12 -2 12 25 0z
m-1236 -13 c8 -11 5 -19 -14 -37 -28 -27 -32 -40 -10 -40 24 0 18 -24 -18 -71
-19 -24 -40 -55 -46 -68 -9 -17 -15 -20 -21 -11 -8 13 -12 9 -46 -35 -14 -18
-14 -16 -8 35 7 63 47 147 94 203 35 39 51 45 69 24z m1316 -25 c-3 -3 -11 0
-18 7 -9 10 -8 11 6 5 10 -3 15 -9 12 -12z m-1445 -1 c0 -6 -12 -23 -26 -38
-25 -28 -23 -19 6 25 16 24 20 27 20 13z m2840 -12 c0 -6 -4 -7 -10 -4 -5 3
-10 11 -10 16 0 6 5 7 10 4 6 -3 10 -11 10 -16z m730 6 c0 -8 -4 -15 -10 -15
-5 0 -10 7 -10 15 0 8 5 15 10 15 6 0 10 -7 10 -15z m-747 -53 c57 -64 64 -94
16 -65 -21 12 -40 37 -55 71 -13 30 -20 52 -15 50 4 -2 29 -27 54 -56z m47 -7
c0 -5 -5 -3 -10 5 -5 8 -10 20 -10 25 0 6 5 3 10 -5 5 -8 10 -19 10 -25z
m1010 11 c0 -3 -4 -8 -10 -11 -5 -3 -10 -1 -10 4 0 6 5 11 10 11 6 0 10 -2 10
-4z m-1381 -45 c12 -16 21 -32 21 -36 0 -4 13 -24 29 -44 27 -34 65 -110 58
-117 -3 -4 -97 132 -97 141 0 3 -11 23 -25 45 -29 46 -17 55 14 11z m-3249 4
c-12 -15 -30 -12 -30 6 0 5 10 9 21 9 18 0 19 -2 9 -15z m681 -8 c-10 -9 -11
-8 -5 6 3 10 9 15 12 12 3 -3 0 -11 -7 -18z m307 -23 c18 -8 32 -20 32 -25 0
-13 -14 -11 -28 3 -9 9 -19 5 -43 -20 -17 -18 -35 -32 -40 -32 -17 0 -9 21 18
48 15 15 27 30 25 35 -3 10 1 9 36 -9z m3612 8 c0 -13 -12 -22 -22 -16 -10 6
-1 24 13 24 5 0 9 -4 9 -8z m-3035 -19 c-33 -8 -67 -22 -76 -29 -21 -18 -53
-18 -69 1 -7 9 -11 18 -8 20 7 8 117 22 168 23 l45 1 -60 -16z m1995 7 c0 -12
-28 -25 -36 -17 -9 9 6 27 22 27 8 0 14 -5 14 -10z m490 -15 c0 -8 -7 -15 -15
-15 -16 0 -20 12 -8 23 11 12 23 8 23 -8z m-2872 -12 c-2 -9 -17 -20 -34 -25
-17 -4 -37 -15 -44 -23 -7 -8 -19 -15 -27 -15 -12 0 -12 2 1 15 8 8 19 15 25
15 6 0 11 6 11 14 0 8 12 19 28 24 39 15 44 14 40 -5z m197 5 c27 -12 34 -38
10 -38 -7 0 -18 -6 -22 -14 -12 -20 -113 -49 -118 -33 -12 32 -9 62 5 62 9 0
15 -9 14 -22 -1 -32 26 -30 65 4 33 29 41 46 17 37 -8 -3 -17 -1 -21 5 -8 14
18 14 50 -1z m2230 -8 c10 -11 14 -20 8 -20 -5 0 -18 9 -28 20 -10 11 -14 20
-8 20 5 0 18 -9 28 -20z m-4245 -30 c0 -5 -4 -10 -9 -10 -6 0 -13 5 -16 10 -3
6 1 10 9 10 9 0 16 -4 16 -10z m5990 -20 c0 -5 -4 -10 -10 -10 -5 0 -10 5 -10
10 0 6 5 10 10 10 6 0 10 -4 10 -10z m-3830 -30 c-8 -5 -35 -10 -60 -10 -25 0
-54 -6 -65 -13 -11 -8 -29 -17 -40 -21 -18 -6 -19 -6 -4 9 9 9 34 23 55 30 46
17 138 20 114 5z m1419 -65 c16 -24 37 -61 46 -82 41 -93 45 -104 45 -116 0
-7 -20 29 -45 78 -24 50 -56 110 -72 134 -35 57 -14 45 26 -14z m671 45 c0 -5
-4 -10 -10 -10 -5 0 -10 5 -10 10 0 6 5 10 10 10 6 0 10 -4 10 -10z m-2991
-72 c-1 -24 -4 -34 -6 -23 -3 11 -10 26 -16 33 -8 10 -7 16 4 23 8 5 15 9 17
9 1 0 1 -19 1 -42z m2141 -89 c0 -18 -10 -8 -25 24 l-16 32 21 -24 c11 -13 20
-27 20 -32z m883 -12 c-10 -65 -34 -41 -25 26 4 33 7 37 18 25 9 -9 12 -25 7
-51z m-387 -149 c24 -32 40 -58 35 -58 -19 0 -148 148 -154 176 -5 28 -4 27
35 -16 22 -25 60 -71 84 -102z m1716 110 c-15 -15 -26 -4 -18 18 5 13 9 15 18
6 9 -9 9 -15 0 -24z m-3995 6 c-3 -3 -12 -4 -19 -1 -8 3 -5 6 6 6 11 1 17 -2
13 -5z m-2192 -34 c-5 -8 -11 -8 -17 -2 -6 6 -7 16 -3 22 5 8 11 8 17 2 6 -6
7 -16 3 -22z m2378 23 c-7 -2 -19 -2 -25 0 -7 3 -2 5 12 5 14 0 19 -2 13 -5z
m-323 -33 c0 -5 -4 -10 -10 -10 -5 0 -10 5 -10 10 0 6 5 10 10 10 6 0 10 -4
10 -10z m2788 -72 c-16 -9 -25 -2 -44 34 l-16 30 36 -28 c23 -19 31 -31 24
-36z m72 37 c13 -14 19 -25 14 -25 -8 1 -50 50 -41 50 2 0 14 -11 27 -25z
m1178 -17 c-4 -27 -23 -34 -32 -13 -8 21 1 35 20 35 10 0 14 -8 12 -22z
m-1987 -31 c30 -8 75 -44 66 -54 -4 -3 1 -15 10 -26 17 -19 17 -19 -6 -12
l-24 7 22 -31 c13 -18 20 -39 17 -47 -5 -13 -9 -13 -30 3 -26 20 -62 69 -59
82 1 5 -8 13 -20 20 -32 17 -62 72 -45 82 7 5 19 2 28 -5 8 -7 27 -16 41 -19z
m49 23 c0 -5 -7 -7 -15 -4 -8 4 -15 8 -15 10 0 2 7 4 15 4 8 0 15 -4 15 -10z
m-3932 -38 c3 -18 -2 -22 -22 -22 -28 0 -34 18 -14 38 17 17 32 10 36 -16z
m2055 -28 c3 -4 1 -16 -4 -27 -9 -15 -13 -17 -19 -7 -14 23 5 51 23 34z m2597
-14 c6 -11 7 -20 2 -20 -10 0 -32 21 -32 32 0 16 19 8 30 -12z m-587 -51 c6
-9 7 -24 4 -32 -9 -23 -40 -10 -34 14 3 10 0 17 -5 16 -6 -1 -13 4 -15 11 -7
20 37 11 50 -9z m418 -15 c9 -11 2 -9 -18 6 -18 13 -33 25 -33 27 0 8 38 -17
51 -33z m-471 -17 c0 -6 -9 -2 -20 8 -11 10 -17 22 -13 28 6 10 33 -19 33 -36z
m365 -5 c-7 -7 -45 29 -45 41 0 6 11 0 25 -13 14 -13 23 -26 20 -28z m398 0
c27 -29 46 -96 29 -106 -5 -3 -27 7 -48 22 -22 16 -59 36 -84 46 -47 18 -114
66 -92 66 7 0 20 -4 30 -9 35 -17 153 -53 159 -48 2 3 -3 12 -14 21 -10 8 -29
24 -43 35 l-25 21 31 -11 c17 -5 43 -22 57 -37z m-2433 14 c0 -8 -4 -17 -9
-20 -10 -7 -23 19 -14 28 11 11 23 6 23 -8z m1570 -27 c17 -31 7 -33 -20 -4
-19 20 -20 25 -7 25 9 0 21 -9 27 -21z m-1150 -79 c0 -5 -4 -10 -10 -10 -5 0
-10 5 -10 10 0 6 5 10 10 10 6 0 10 -4 10 -10z m1235 -10 c21 -23 4 -27 -19
-4 -18 17 -20 24 -8 24 5 0 17 -9 27 -20z m-1726 -106 c-31 -33 -32 -36 -10
-29 18 5 9 -6 -29 -40 -30 -26 -55 -57 -55 -68 -2 -17 -45 -61 -52 -53 -2 2 0
17 3 34 4 22 18 39 40 53 19 11 34 27 34 35 0 17 90 117 98 109 3 -3 -10 -21
-29 -41z m-2059 32 c0 -11 -19 -15 -25 -6 -3 5 1 10 9 10 9 0 16 -2 16 -4z
m4550 -11 c0 -8 -4 -15 -10 -15 -5 0 -10 7 -10 15 0 8 5 15 10 15 6 0 10 -7
10 -15z m10 -79 c0 -14 6 -31 14 -38 18 -18 32 -63 17 -54 -6 4 -11 12 -11 18
0 6 -8 20 -17 31 -18 19 -26 67 -11 67 4 0 8 -11 8 -24z m-1768 -40 c4 -6 3
-13 -2 -16 -6 -3 -9 -25 -7 -47 1 -23 5 -39 8 -37 7 4 33 -28 37 -44 8 -38 4
-52 -13 -52 -8 0 -15 -9 -15 -20 0 -13 -5 -18 -15 -14 -16 6 -18 -3 -16 -61 1
-26 0 -27 -8 -10 -5 12 -16 27 -25 34 -14 12 -16 12 -10 -3 3 -9 1 -16 -5 -16
-6 0 -11 3 -12 8 0 4 -2 21 -4 37 -1 17 -6 56 -10 89 -5 44 -4 61 6 67 8 5 13
21 11 39 -3 21 0 30 10 28 8 -2 13 6 12 19 0 19 3 22 25 16 14 -3 29 -11 33
-17z m78 -88 c0 -20 -1 -21 -24 -12 -16 6 -22 45 -9 58 10 9 33 -23 33 -46z
m1679 6 c24 -7 48 -11 54 -7 5 3 7 0 5 -8 -3 -10 -18 -13 -47 -11 -23 2 -56
-2 -72 -9 -34 -13 -44 -7 -54 33 -7 26 -6 27 32 22 21 -3 58 -12 82 -20z
m-4059 -20 c0 -8 -4 -14 -10 -14 -5 0 -10 9 -10 21 0 11 5 17 10 14 6 -3 10
-13 10 -21z m3909 -3 c9 -6 10 -11 2 -15 -6 -4 -11 -19 -11 -34 0 -21 -2 -24
-10 -12 -11 18 -13 70 -2 70 4 0 13 -4 21 -9z m-2509 -16 c-7 -8 -17 -15 -22
-15 -11 0 14 29 26 30 5 0 3 -7 -4 -15z m963 1 c6 -14 0 -26 -13 -26 -3 0 -6
9 -6 20 0 23 11 27 19 6z m-353 -26 c0 -11 -7 -20 -15 -20 -13 0 -14 4 -5 20
6 11 13 20 15 20 3 0 5 -9 5 -20z m3560 0 c0 -5 -5 -10 -11 -10 -5 0 -7 5 -4
10 3 6 8 10 11 10 2 0 4 -4 4 -10z m-3460 -45 c5 -13 14 -25 20 -27 19 -6 15
-62 -16 -205 -3 -19 -11 -23 -39 -23 -28 0 -35 4 -35 19 0 11 4 21 10 23 19 6
9 158 -10 158 -5 0 -3 15 2 33 6 17 12 37 14 44 5 19 45 2 54 -22z m-2875 -5
c3 -5 1 -10 -4 -10 -6 0 -11 5 -11 10 0 6 2 10 4 10 3 0 8 -4 11 -10z m5190 0
c11 -18 -6 -50 -26 -50 -22 0 -34 22 -25 45 6 17 42 20 51 5z m-535 -30 c0
-12 -40 -34 -48 -26 -3 4 3 13 14 21 22 17 34 19 34 5z m-1710 -100 c6 -11 8
-20 4 -20 -3 0 1 -11 10 -25 17 -26 22 -65 7 -65 -5 0 -11 6 -14 13 -2 6 -7
-3 -12 -22 -5 -24 -3 -36 6 -42 10 -6 11 -9 2 -9 -7 0 -13 -10 -13 -22 0 -21
-1 -21 -14 -3 -7 10 -11 27 -8 38 3 10 -1 23 -9 28 -9 5 -9 9 -2 9 6 0 9 9 6
20 -3 11 0 20 6 20 5 0 8 7 5 15 -4 8 -1 15 6 15 10 0 9 15 -7 58 -8 20 15 14
27 -8z m1570 -75 l24 -25 -32 16 c-18 8 -30 20 -27 25 8 12 8 12 35 -16z
m-3430 -50 c0 -16 -6 -25 -15 -25 -9 0 -15 9 -15 25 0 16 6 25 15 25 9 0 15
-9 15 -25z m3474 -44 c-6 -6 -24 19 -24 34 1 6 7 1 15 -9 8 -11 12 -22 9 -25z
m-1707 -7 c3 -8 1 -20 -6 -27 -6 -6 -11 -21 -11 -34 0 -14 -6 -23 -15 -23 -8
0 -15 -7 -15 -16 0 -8 -4 -12 -10 -9 -10 6 -9 40 2 51 4 3 4 12 1 20 -3 9 0
14 8 12 9 -2 14 5 13 20 -1 25 23 30 33 6z m1463 -81 c0 -7 -9 -13 -20 -13
-21 0 -25 16 -13 60 l7 25 12 -30 c7 -17 13 -36 14 -42z m810 57 c0 -5 -5 -10
-11 -10 -5 0 -7 5 -4 10 3 6 8 10 11 10 2 0 4 -4 4 -10z m-2969 -34 c1 -6 3
-30 5 -54 4 -43 -11 -55 -26 -21 -15 30 -29 82 -25 90 7 10 45 -1 46 -15z
m738 -33 c1 -7 -3 -13 -9 -13 -5 0 -10 17 -9 38 1 33 2 34 9 12 4 -14 8 -31 9
-37z m1751 -23 c0 -5 -4 -10 -10 -10 -5 0 -10 5 -10 10 0 6 5 10 10 10 6 0 10
-4 10 -10z m-1767 -31 c-6 -6 -9 -28 -6 -50 6 -42 -10 -55 -21 -16 -9 36 -7
65 7 70 22 9 31 7 20 -4z m14 -31 c-3 -8 -6 -5 -6 6 -1 11 2 17 5 13 3 -3 4
-12 1 -19z m-547 -20 c0 -6 8 -20 18 -31 9 -11 11 -17 5 -13 -18 10 -16 -11 4
-45 9 -15 14 -31 11 -35 -11 -10 -28 6 -28 25 0 27 -30 81 -45 81 -7 0 -15 7
-19 15 -4 11 2 15 24 15 17 0 30 -5 30 -12z m-116 -54 c22 -47 21 -48 -19 -22
-22 15 -35 31 -35 45 0 33 34 18 54 -23z m4136 11 c0 -8 -4 -15 -10 -15 -5 0
-10 7 -10 15 0 8 5 15 10 15 6 0 10 -7 10 -15z m-3779 -118 c19 -52 9 -65 -13
-17 -7 17 -16 30 -20 30 -5 0 -8 9 -8 21 0 35 24 15 41 -34z m-2601 -42 c0 -8
-4 -15 -10 -15 -5 0 -10 7 -10 15 0 8 5 15 10 15 6 0 10 -7 10 -15z m4131 -48
c-10 -9 -11 -8 -5 6 3 10 9 15 12 12 3 -3 0 -11 -7 -18z m1569 8 c0 -8 -4 -15
-10 -15 -5 0 -10 7 -10 15 0 8 5 15 10 15 6 0 10 -7 10 -15z m-1750 -40 c-7
-14 -22 -25 -34 -25 -18 0 -17 3 9 30 33 34 45 32 25 -5z m-3260 15 c0 -5 -4
-10 -10 -10 -5 0 -10 5 -10 10 0 6 5 10 10 10 6 0 10 -4 10 -10z m3000 0 c0
-5 -7 -10 -16 -10 -8 0 -12 5 -9 10 3 6 10 10 16 10 5 0 9 -4 9 -10z m291 -57
c-17 -24 -29 -48 -26 -54 4 -5 -1 -9 -9 -9 -18 0 -21 16 -6 25 6 3 10 16 10
28 0 24 53 84 59 66 2 -6 -11 -31 -28 -56z m89 12 c-12 -13 -27 -22 -31 -19
-5 3 3 16 19 29 34 30 43 23 12 -10z m1638 8 c-4 -22 -22 -20 -26 1 -2 10 3
16 13 16 10 0 15 -7 13 -17z m-1707 -54 c-13 -11 -26 -17 -29 -15 -3 3 6 14
19 25 13 11 26 17 29 14 3 -2 -6 -13 -19 -24z m-3811 11 c0 -5 -5 -10 -11 -10
-5 0 -7 5 -4 10 3 6 8 10 11 10 2 0 4 -4 4 -10z m3458 -38 c-28 -39 -111 -142
-114 -142 -2 0 -4 7 -4 16 0 9 28 45 62 80 61 64 81 80 56 46z m1782 -12 c0
-5 -4 -10 -10 -10 -5 0 -10 5 -10 10 0 6 5 10 10 10 6 0 10 -4 10 -10z m-2020
-20 c0 -5 -7 -10 -16 -10 -8 0 -12 5 -9 10 3 6 10 10 16 10 5 0 9 -4 9 -10z
m-2570 -76 c0 -8 -4 -12 -10 -9 -5 3 -10 10 -10 16 0 5 5 9 10 9 6 0 10 -7 10
-16z m1897 -26 c-3 -8 -6 -5 -6 6 -1 11 2 17 5 13 3 -3 4 -12 1 -19z m-1421
-24 c-6 -17 -8 -17 -24 0 -15 15 -15 18 -2 26 19 12 35 -3 26 -26z m1844 -63
c0 -6 -4 -13 -10 -16 -5 -3 -10 1 -10 9 0 9 5 16 10 16 6 0 10 -4 10 -9z
m-3230 -51 c0 -22 -24 -32 -39 -17 -15 15 -14 34 2 40 20 7 37 -4 37 -23z
m255 -20 c8 -14 -13 -50 -30 -50 -15 0 -30 35 -20 50 8 13 42 13 50 0z m1652
-12 c-3 -8 -6 -5 -6 6 -1 11 2 17 5 13 3 -3 4 -12 1 -19z m3363 -2 c0 -3 -4
-8 -10 -11 -5 -3 -10 -1 -10 4 0 6 5 11 10 11 6 0 10 -2 10 -4z m-2038 -108
c-15 -15 -26 -4 -18 18 5 13 9 15 18 6 9 -9 9 -15 0 -24z m-2899 8 c8 -20 -20
-43 -35 -28 -14 14 -3 42 16 42 7 0 16 -6 19 -14z m5047 -86 c0 -5 -4 -10 -10
-10 -5 0 -10 5 -10 10 0 6 5 10 10 10 6 0 10 -4 10 -10z m-2120 -77 c0 -20
-24 -11 -28 10 -2 12 1 15 12 11 9 -3 16 -13 16 -21z m-1261 -35 c56 -15 115
-70 131 -125 25 -82 -9 -149 -103 -203 l-51 -29 30 -6 c155 -34 213 -104 234
-281 17 -151 14 -201 -15 -229 -13 -14 -33 -25 -43 -25 -38 0 -47 27 -48 149
0 177 -26 236 -121 281 -85 40 -295 31 -333 -15 -12 -14 -4 -109 21 -249 11
-64 11 -70 -6 -82 -26 -19 -75 -18 -97 3 -14 13 -18 31 -18 95 0 44 -4 109
-10 146 -29 195 -29 370 0 432 25 54 169 136 264 150 56 8 97 5 165 -12z
m1044 -8 c41 -15 76 -39 118 -80 96 -94 135 -211 127 -379 -4 -78 -9 -99 -41
-164 -43 -86 -100 -143 -189 -188 -32 -16 -58 -33 -58 -38 0 -4 -53 -7 -117
-7 -114 1 -121 2 -193 37 -157 75 -269 232 -278 390 -5 90 9 162 49 239 59
117 153 182 309 214 58 11 215 -2 273 -24z m869 14 c62 -23 98 -65 98 -113 0
-37 -26 -85 -57 -104 -21 -13 -15 -26 15 -33 26 -7 86 -37 108 -55 8 -6 14 -4
18 6 3 9 11 13 16 10 8 -5 7 -11 -1 -21 -9 -11 -8 -18 4 -32 63 -70 82 -225
38 -316 -61 -124 -159 -169 -426 -196 -143 -15 -159 -14 -190 6 l-26 17 3 378
c4 453 -5 424 129 451 111 21 217 22 271 2z m1050 -13 c153 -59 242 -194 255
-391 9 -143 -30 -253 -124 -344 -183 -178 -458 -164 -633 32 -104 116 -140
251 -111 404 32 162 164 288 331 317 85 15 216 7 282 -18z m-3672 -16 c0 -8
-2 -15 -4 -15 -2 0 -6 7 -10 15 -3 8 -1 15 4 15 6 0 10 -7 10 -15z m1025 -75
c3 -5 1 -10 -4 -10 -6 0 -11 5 -11 10 0 6 2 10 4 10 3 0 8 -4 11 -10z m1815
-60 c0 -14 -15 -19 -29 -10 -17 10 -5 31 14 23 8 -3 15 -9 15 -13z m-4154 -57
c-10 -10 -19 5 -10 18 6 11 8 11 12 0 2 -7 1 -15 -2 -18z m516 -288 c0 -5 -5
-11 -11 -13 -6 -2 -11 4 -11 13 0 9 5 15 11 13 6 -2 11 -8 11 -13z m-148 -53
c2 -4 1 -14 -4 -22 -7 -11 -12 -12 -21 -3 -6 6 -8 16 -5 22 8 13 23 14 30 3z
m776 -107 c0 -8 -4 -15 -10 -15 -5 0 -10 7 -10 15 0 8 5 15 10 15 6 0 10 -7
10 -15z m3174 -116 c-3 -5 -10 -7 -15 -3 -5 3 -7 10 -3 15 3 5 10 7 15 3 5 -3
7 -10 3 -15z m-3774 -504 c0 -8 -4 -15 -9 -15 -13 0 -22 16 -14 24 11 11 23 6
23 -9z m1510 -290 c0 -8 -7 -15 -15 -15 -8 0 -15 7 -15 15 0 8 7 15 15 15 8 0
15 -7 15 -15z"/>
<path d="M3525 5070 c-3 -5 1 -10 9 -10 9 0 16 5 16 10 0 6 -4 10 -9 10 -6 0
-13 -4 -16 -10z"/>
<path d="M3442 5060 c-41 -10 -66 -30 -36 -30 32 0 94 20 94 30 0 11 -11 11
-58 0z"/>
<path d="M2970 5001 c-70 -57 -113 -101 -108 -107 8 -7 160 106 166 124 7 21
-22 13 -58 -17z"/>
<path d="M3594 4968 l-29 -20 35 6 c40 7 58 21 37 29 -8 3 -27 -4 -43 -15z"/>
<path d="M2925 4850 c-3 -6 1 -7 9 -4 18 7 21 14 7 14 -6 0 -13 -4 -16 -10z"/>
<path d="M3413 4833 c-14 -5 -18 -23 -5 -23 5 0 17 7 28 15 14 11 15 14 4 14
-8 0 -21 -3 -27 -6z"/>
<path d="M3244 4800 c-31 -12 -39 -30 -15 -30 12 0 21 4 21 8 0 5 10 14 23 20
26 13 2 15 -29 2z"/>
<path d="M3268 4773 c7 -3 16 -2 19 1 4 3 -2 6 -13 5 -11 0 -14 -3 -6 -6z"/>
<path d="M2034 1516 c-125 -41 -162 -89 -148 -195 l9 -66 38 3 c59 5 216 59
269 94 28 17 51 40 54 54 8 33 -8 75 -39 98 -33 25 -126 31 -183 12z"/>
<path d="M3001 1515 c-64 -18 -146 -66 -179 -104 -55 -63 -67 -101 -67 -201 0
-84 3 -102 28 -152 37 -75 103 -147 169 -183 47 -27 62 -30 138 -30 107 0 170
26 235 96 75 81 102 176 85 301 -25 171 -130 277 -285 285 -42 2 -91 -3 -124
-12z m129 -25 c0 -5 -4 -10 -10 -10 -5 0 -10 5 -10 10 0 6 5 10 10 10 6 0 10
-4 10 -10z"/>
<path d="M3925 1521 c-59 -15 -72 -30 -79 -94 -3 -33 -4 -63 -1 -65 3 -3 28 2
56 11 28 10 61 17 73 17 70 0 160 55 154 94 -2 11 -14 26 -28 33 -27 14 -126
16 -175 4z"/>
<path d="M3975 1270 c-33 -16 -75 -29 -92 -30 l-33 0 0 -119 c0 -65 3 -146 6
-180 l7 -61 113 0 c135 0 208 22 266 79 66 66 75 172 20 240 -35 43 -120 88
-182 96 -37 4 -56 -1 -105 -25z"/>
<path d="M4938 1520 c-56 -14 -149 -64 -180 -97 -15 -15 -39 -54 -53 -86 -76
-165 9 -378 185 -469 37 -19 61 -23 130 -23 73 0 94 5 142 28 65 32 121 89
152 156 31 68 31 245 -1 314 -56 121 -139 179 -263 183 -41 2 -92 -1 -112 -6z"/>
</g>
</svg>
